<mxfile host="app.diagrams.net" modified="2024-05-22T11:37:21.017Z" agent="Mozilla/5.0 (X11; Linux x86_64; rv:109.0) Gecko/20100101 Firefox/115.0" etag="Or2PF5N-xSdNUIjKPGDw" version="24.4.6" type="github">
  <diagram name="Page-1" id="Ry3pSd6w9D9t_Aq7J8iB">
    <mxGraphModel dx="1035" dy="566" grid="1" gridSize="10" guides="1" tooltips="1" connect="1" arrows="1" fold="1" page="1" pageScale="1" pageWidth="850" pageHeight="1100" math="0" shadow="0">
      <root>
        <mxCell id="0" />
        <mxCell id="1" parent="0" />
        <mxCell id="nB0PoolwAAnDLM-8O1oI-1" value="Operating Systems" style="whiteSpace=wrap;strokeWidth=2;" vertex="1" parent="1">
          <mxGeometry x="765" y="20" width="151" height="34" as="geometry" />
        </mxCell>
        <mxCell id="nB0PoolwAAnDLM-8O1oI-2" value="Unix-like OS" style="whiteSpace=wrap;strokeWidth=2;" vertex="1" parent="1">
          <mxGeometry x="788" y="104" width="104" height="34" as="geometry" />
        </mxCell>
        <mxCell id="nB0PoolwAAnDLM-8O1oI-3" value="BSD Family" style="whiteSpace=wrap;strokeWidth=2;" vertex="1" parent="1">
          <mxGeometry x="78" y="188" width="99" height="34" as="geometry" />
        </mxCell>
        <mxCell id="nB0PoolwAAnDLM-8O1oI-4" value="Linux Family" style="whiteSpace=wrap;strokeWidth=2;" vertex="1" parent="1">
          <mxGeometry x="932" y="188" width="105" height="34" as="geometry" />
        </mxCell>
        <mxCell id="nB0PoolwAAnDLM-8O1oI-5" value="FreeBSD" style="whiteSpace=wrap;strokeWidth=2;" vertex="1" parent="1">
          <mxGeometry x="20" y="272" width="81" height="34" as="geometry" />
        </mxCell>
        <mxCell id="nB0PoolwAAnDLM-8O1oI-6" value="OpenBSD" style="whiteSpace=wrap;strokeWidth=2;" vertex="1" parent="1">
          <mxGeometry x="151" y="272" width="87" height="34" as="geometry" />
        </mxCell>
        <mxCell id="nB0PoolwAAnDLM-8O1oI-7" value="NetBSD" style="whiteSpace=wrap;strokeWidth=2;" vertex="1" parent="1">
          <mxGeometry x="288" y="272" width="73" height="34" as="geometry" />
        </mxCell>
        <mxCell id="nB0PoolwAAnDLM-8O1oI-8" value="Commercial Linux" style="whiteSpace=wrap;strokeWidth=2;" vertex="1" parent="1">
          <mxGeometry x="411" y="272" width="143" height="34" as="geometry" />
        </mxCell>
        <mxCell id="nB0PoolwAAnDLM-8O1oI-9" value="Community Linux" style="whiteSpace=wrap;strokeWidth=2;" vertex="1" parent="1">
          <mxGeometry x="1592" y="272" width="139" height="34" as="geometry" />
        </mxCell>
        <UserObject label="Red Hat Enterprise Linux" link="https://www.redhat.com" id="nB0PoolwAAnDLM-8O1oI-10">
          <mxCell style="whiteSpace=wrap;strokeWidth=2;" vertex="1" parent="1">
            <mxGeometry x="43" y="356" width="194" height="34" as="geometry" />
          </mxCell>
        </UserObject>
        <UserObject label="SUSE Linux Enterprise Server" link="https://www.suse.com" id="nB0PoolwAAnDLM-8O1oI-11">
          <mxCell style="whiteSpace=wrap;strokeWidth=2;" vertex="1" parent="1">
            <mxGeometry x="287" y="356" width="230" height="34" as="geometry" />
          </mxCell>
        </UserObject>
        <UserObject label="Oracle Linux" link="https://www.oracle.com/linux/" id="nB0PoolwAAnDLM-8O1oI-12">
          <mxCell style="whiteSpace=wrap;strokeWidth=2;" vertex="1" parent="1">
            <mxGeometry x="567" y="356" width="105" height="34" as="geometry" />
          </mxCell>
        </UserObject>
        <mxCell id="nB0PoolwAAnDLM-8O1oI-13" value="Debian Family" style="whiteSpace=wrap;strokeWidth=2;" vertex="1" parent="1">
          <mxGeometry x="722" y="356" width="117" height="34" as="geometry" />
        </mxCell>
        <mxCell id="nB0PoolwAAnDLM-8O1oI-14" value="Red Hat Family" style="whiteSpace=wrap;strokeWidth=2;" vertex="1" parent="1">
          <mxGeometry x="1255" y="356" width="125" height="34" as="geometry" />
        </mxCell>
        <mxCell id="nB0PoolwAAnDLM-8O1oI-15" value="Slackware Family" style="whiteSpace=wrap;strokeWidth=2;" vertex="1" parent="1">
          <mxGeometry x="1591" y="356" width="140" height="34" as="geometry" />
        </mxCell>
        <mxCell id="nB0PoolwAAnDLM-8O1oI-16" value="Arch Family" style="whiteSpace=wrap;strokeWidth=2;" vertex="1" parent="1">
          <mxGeometry x="1995" y="356" width="99" height="34" as="geometry" />
        </mxCell>
        <mxCell id="nB0PoolwAAnDLM-8O1oI-17" value="Gentoo Family" style="whiteSpace=wrap;strokeWidth=2;" vertex="1" parent="1">
          <mxGeometry x="2397" y="356" width="119" height="34" as="geometry" />
        </mxCell>
        <UserObject label="Debian" link="https://www.debian.org" id="nB0PoolwAAnDLM-8O1oI-18">
          <mxCell style="whiteSpace=wrap;strokeWidth=2;" vertex="1" parent="1">
            <mxGeometry x="350" y="440" width="66" height="34" as="geometry" />
          </mxCell>
        </UserObject>
        <UserObject label="Ubuntu" link="https://www.ubuntu.com" id="nB0PoolwAAnDLM-8O1oI-19">
          <mxCell style="whiteSpace=wrap;strokeWidth=2;" vertex="1" parent="1">
            <mxGeometry x="465" y="440" width="67" height="34" as="geometry" />
          </mxCell>
        </UserObject>
        <UserObject label="Linux Mint" link="https://www.linuxmint.com" id="nB0PoolwAAnDLM-8O1oI-20">
          <mxCell style="whiteSpace=wrap;strokeWidth=2;" vertex="1" parent="1">
            <mxGeometry x="582" y="440" width="88" height="34" as="geometry" />
          </mxCell>
        </UserObject>
        <UserObject label="Elementary OS" link="https://elementary.io" id="nB0PoolwAAnDLM-8O1oI-21">
          <mxCell style="whiteSpace=wrap;strokeWidth=2;" vertex="1" parent="1">
            <mxGeometry x="720" y="440" width="124" height="34" as="geometry" />
          </mxCell>
        </UserObject>
        <UserObject label="Kali Linux" link="https://www.kali.org" id="nB0PoolwAAnDLM-8O1oI-22">
          <mxCell style="whiteSpace=wrap;strokeWidth=2;" vertex="1" parent="1">
            <mxGeometry x="893" y="440" width="84" height="34" as="geometry" />
          </mxCell>
        </UserObject>
        <UserObject label="Fedora" link="https://getfedora.org" id="nB0PoolwAAnDLM-8O1oI-23">
          <mxCell style="whiteSpace=wrap;strokeWidth=2;" vertex="1" parent="1">
            <mxGeometry x="1028" y="440" width="66" height="34" as="geometry" />
          </mxCell>
        </UserObject>
        <UserObject label="CentOS" link="https://www.centos.org" id="nB0PoolwAAnDLM-8O1oI-24">
          <mxCell style="whiteSpace=wrap;strokeWidth=2;" vertex="1" parent="1">
            <mxGeometry x="1144" y="440" width="72" height="34" as="geometry" />
          </mxCell>
        </UserObject>
        <UserObject label="AlmaLinux" link="https://almalinux.org" id="nB0PoolwAAnDLM-8O1oI-25">
          <mxCell style="whiteSpace=wrap;strokeWidth=2;" vertex="1" parent="1">
            <mxGeometry x="1265" y="440" width="90" height="34" as="geometry" />
          </mxCell>
        </UserObject>
        <UserObject label="Rocky Linux" link="https://rockylinux.org" id="nB0PoolwAAnDLM-8O1oI-26">
          <mxCell style="whiteSpace=wrap;strokeWidth=2;" vertex="1" parent="1">
            <mxGeometry x="1405" y="440" width="102" height="34" as="geometry" />
          </mxCell>
        </UserObject>
        <UserObject label="Slackware" link="http://www.slackware.com" id="nB0PoolwAAnDLM-8O1oI-27">
          <mxCell style="whiteSpace=wrap;strokeWidth=2;" vertex="1" parent="1">
            <mxGeometry x="1557" y="440" width="89" height="34" as="geometry" />
          </mxCell>
        </UserObject>
        <UserObject label="Salix" link="https://salixos.org" id="nB0PoolwAAnDLM-8O1oI-28">
          <mxCell style="whiteSpace=wrap;strokeWidth=2;" vertex="1" parent="1">
            <mxGeometry x="1696" y="440" width="50" height="34" as="geometry" />
          </mxCell>
        </UserObject>
        <UserObject label="Arch Linux" link="https://archlinux.org" id="nB0PoolwAAnDLM-8O1oI-29">
          <mxCell style="whiteSpace=wrap;strokeWidth=2;" vertex="1" parent="1">
            <mxGeometry x="1796" y="440" width="91" height="34" as="geometry" />
          </mxCell>
        </UserObject>
        <UserObject label="Manjaro" link="https://manjaro.org" id="nB0PoolwAAnDLM-8O1oI-30">
          <mxCell style="whiteSpace=wrap;strokeWidth=2;" vertex="1" parent="1">
            <mxGeometry x="1936" y="440" width="73" height="34" as="geometry" />
          </mxCell>
        </UserObject>
        <UserObject label="EndeavourOS" link="https://endeavouros.com" id="nB0PoolwAAnDLM-8O1oI-31">
          <mxCell style="whiteSpace=wrap;strokeWidth=2;" vertex="1" parent="1">
            <mxGeometry x="2059" y="440" width="116" height="34" as="geometry" />
          </mxCell>
        </UserObject>
        <UserObject label="Gentoo" link="https://www.gentoo.org" id="nB0PoolwAAnDLM-8O1oI-32">
          <mxCell style="whiteSpace=wrap;strokeWidth=2;" vertex="1" parent="1">
            <mxGeometry x="2225" y="440" width="68" height="34" as="geometry" />
          </mxCell>
        </UserObject>
        <UserObject label="Sabayon" link="https://www.sabayon.org" id="nB0PoolwAAnDLM-8O1oI-33">
          <mxCell style="whiteSpace=wrap;strokeWidth=2;" vertex="1" parent="1">
            <mxGeometry x="2342" y="440" width="78" height="34" as="geometry" />
          </mxCell>
        </UserObject>
        <UserObject label="Calculate Linux" link="https://www.calculate-linux.org" id="nB0PoolwAAnDLM-8O1oI-34">
          <mxCell style="whiteSpace=wrap;strokeWidth=2;" vertex="1" parent="1">
            <mxGeometry x="2470" y="440" width="124" height="34" as="geometry" />
          </mxCell>
        </UserObject>
        <mxCell id="nB0PoolwAAnDLM-8O1oI-35" value="" style="curved=1;startArrow=none;endArrow=block;exitX=0.49848235048205647;exitY=1;entryX=0.502604181949909;entryY=0;rounded=0;" edge="1" parent="1" source="nB0PoolwAAnDLM-8O1oI-1" target="nB0PoolwAAnDLM-8O1oI-2">
          <mxGeometry relative="1" as="geometry">
            <Array as="points" />
          </mxGeometry>
        </mxCell>
        <mxCell id="nB0PoolwAAnDLM-8O1oI-36" value="" style="curved=1;startArrow=none;endArrow=block;exitX=0.0030849438447218677;exitY=0.5900144197010365;entryX=0.49844275580512154;entryY=0;rounded=0;" edge="1" parent="1" source="nB0PoolwAAnDLM-8O1oI-2" target="nB0PoolwAAnDLM-8O1oI-3">
          <mxGeometry relative="1" as="geometry">
            <Array as="points">
              <mxPoint x="127" y="163" />
            </Array>
          </mxGeometry>
        </mxCell>
        <mxCell id="nB0PoolwAAnDLM-8O1oI-37" value="" style="curved=1;startArrow=none;endArrow=block;exitX=1.002123420055096;exitY=0.945920473788685;entryX=0.49698414575485955;entryY=0;rounded=0;" edge="1" parent="1" source="nB0PoolwAAnDLM-8O1oI-2" target="nB0PoolwAAnDLM-8O1oI-4">
          <mxGeometry relative="1" as="geometry">
            <Array as="points">
              <mxPoint x="984" y="163" />
            </Array>
          </mxGeometry>
        </mxCell>
        <mxCell id="nB0PoolwAAnDLM-8O1oI-38" value="" style="curved=1;startArrow=none;endArrow=block;exitX=0.22470037268583112;exitY=1;entryX=0.4986625483006607;entryY=0;rounded=0;" edge="1" parent="1" source="nB0PoolwAAnDLM-8O1oI-3" target="nB0PoolwAAnDLM-8O1oI-5">
          <mxGeometry relative="1" as="geometry">
            <Array as="points">
              <mxPoint x="60" y="247" />
            </Array>
          </mxGeometry>
        </mxCell>
        <mxCell id="nB0PoolwAAnDLM-8O1oI-39" value="" style="curved=1;startArrow=none;endArrow=block;exitX=0.7721851389244119;exitY=1;entryX=0.49770114065586835;entryY=0;rounded=0;" edge="1" parent="1" source="nB0PoolwAAnDLM-8O1oI-3" target="nB0PoolwAAnDLM-8O1oI-6">
          <mxGeometry relative="1" as="geometry">
            <Array as="points">
              <mxPoint x="194" y="247" />
            </Array>
          </mxGeometry>
        </mxCell>
        <mxCell id="nB0PoolwAAnDLM-8O1oI-40" value="" style="curved=1;startArrow=none;endArrow=block;exitX=1.0006313131313131;exitY=0.8119675242804919;entryX=0.4960045487913367;entryY=0;rounded=0;" edge="1" parent="1" source="nB0PoolwAAnDLM-8O1oI-3" target="nB0PoolwAAnDLM-8O1oI-7">
          <mxGeometry relative="1" as="geometry">
            <Array as="points">
              <mxPoint x="324" y="247" />
            </Array>
          </mxGeometry>
        </mxCell>
        <mxCell id="nB0PoolwAAnDLM-8O1oI-41" value="" style="curved=1;startArrow=none;endArrow=block;exitX=-0.002063487824939546;exitY=0.6289280728909465;entryX=0.4973776223776224;entryY=0;rounded=0;" edge="1" parent="1" source="nB0PoolwAAnDLM-8O1oI-4" target="nB0PoolwAAnDLM-8O1oI-8">
          <mxGeometry relative="1" as="geometry">
            <Array as="points">
              <mxPoint x="482" y="247" />
            </Array>
          </mxGeometry>
        </mxCell>
        <mxCell id="nB0PoolwAAnDLM-8O1oI-42" value="" style="curved=1;startArrow=none;endArrow=block;exitX=0.9960317793346587;exitY=0.5955933053255498;entryX=0.49868108214234275;entryY=0;rounded=0;" edge="1" parent="1" source="nB0PoolwAAnDLM-8O1oI-4" target="nB0PoolwAAnDLM-8O1oI-9">
          <mxGeometry relative="1" as="geometry">
            <Array as="points">
              <mxPoint x="1661" y="247" />
            </Array>
          </mxGeometry>
        </mxCell>
        <mxCell id="nB0PoolwAAnDLM-8O1oI-43" value="" style="curved=1;startArrow=none;endArrow=block;exitX=-0.002797213467684659;exitY=0.7584469977089073;entryX=0.5013316144648287;entryY=0;rounded=0;" edge="1" parent="1" source="nB0PoolwAAnDLM-8O1oI-8" target="nB0PoolwAAnDLM-8O1oI-10">
          <mxGeometry relative="1" as="geometry">
            <Array as="points">
              <mxPoint x="140" y="331" />
            </Array>
          </mxGeometry>
        </mxCell>
        <mxCell id="nB0PoolwAAnDLM-8O1oI-44" value="" style="curved=1;startArrow=none;endArrow=block;exitX=0.2713147959548792;exitY=1;entryX=0.5011231878529424;entryY=0;rounded=0;" edge="1" parent="1" source="nB0PoolwAAnDLM-8O1oI-8" target="nB0PoolwAAnDLM-8O1oI-11">
          <mxGeometry relative="1" as="geometry">
            <Array as="points">
              <mxPoint x="402" y="331" />
            </Array>
          </mxGeometry>
        </mxCell>
        <mxCell id="nB0PoolwAAnDLM-8O1oI-45" value="" style="curved=1;startArrow=none;endArrow=block;exitX=0.8870199176815007;exitY=1;entryX=0.5026983896891276;entryY=0;rounded=0;" edge="1" parent="1" source="nB0PoolwAAnDLM-8O1oI-8" target="nB0PoolwAAnDLM-8O1oI-12">
          <mxGeometry relative="1" as="geometry">
            <Array as="points">
              <mxPoint x="620" y="331" />
            </Array>
          </mxGeometry>
        </mxCell>
        <mxCell id="nB0PoolwAAnDLM-8O1oI-46" value="" style="curved=1;startArrow=none;endArrow=block;exitX=0.000059971706472712456;exitY=0.597236783143322;entryX=0.5027777679965028;entryY=0;rounded=0;" edge="1" parent="1" source="nB0PoolwAAnDLM-8O1oI-9" target="nB0PoolwAAnDLM-8O1oI-13">
          <mxGeometry relative="1" as="geometry">
            <Array as="points">
              <mxPoint x="781" y="331" />
            </Array>
          </mxGeometry>
        </mxCell>
        <mxCell id="nB0PoolwAAnDLM-8O1oI-47" value="" style="curved=1;startArrow=none;endArrow=block;exitX=0.000059971706472712456;exitY=0.7492767493063852;entryX=0.5028666687011719;entryY=0;rounded=0;" edge="1" parent="1" source="nB0PoolwAAnDLM-8O1oI-9" target="nB0PoolwAAnDLM-8O1oI-14">
          <mxGeometry relative="1" as="geometry">
            <Array as="points">
              <mxPoint x="1318" y="331" />
            </Array>
          </mxGeometry>
        </mxCell>
        <mxCell id="nB0PoolwAAnDLM-8O1oI-48" value="" style="curved=1;startArrow=none;endArrow=block;exitX=0.49868108214234275;exitY=1;entryX=0.5022619315556117;entryY=0;rounded=0;" edge="1" parent="1" source="nB0PoolwAAnDLM-8O1oI-9" target="nB0PoolwAAnDLM-8O1oI-15">
          <mxGeometry relative="1" as="geometry">
            <Array as="points" />
          </mxGeometry>
        </mxCell>
        <mxCell id="nB0PoolwAAnDLM-8O1oI-49" value="" style="curved=1;startArrow=none;endArrow=block;exitX=0.9973021925782128;exitY=0.7232252323465067;entryX=0.5036195697206439;entryY=0;rounded=0;" edge="1" parent="1" source="nB0PoolwAAnDLM-8O1oI-9" target="nB0PoolwAAnDLM-8O1oI-16">
          <mxGeometry relative="1" as="geometry">
            <Array as="points">
              <mxPoint x="2045" y="331" />
            </Array>
          </mxGeometry>
        </mxCell>
        <mxCell id="nB0PoolwAAnDLM-8O1oI-50" value="" style="curved=1;startArrow=none;endArrow=block;exitX=0.9973021925782128;exitY=0.6076109605623953;entryX=0.5035715183290113;entryY=0;rounded=0;" edge="1" parent="1" source="nB0PoolwAAnDLM-8O1oI-9" target="nB0PoolwAAnDLM-8O1oI-17">
          <mxGeometry relative="1" as="geometry">
            <Array as="points">
              <mxPoint x="2457" y="331" />
            </Array>
          </mxGeometry>
        </mxCell>
        <mxCell id="nB0PoolwAAnDLM-8O1oI-51" value="" style="curved=1;startArrow=none;endArrow=block;exitX=0.0017093919281266693;exitY=0.6818471647553579;entryX=0.49368687831994257;entryY=0;rounded=0;" edge="1" parent="1" source="nB0PoolwAAnDLM-8O1oI-13" target="nB0PoolwAAnDLM-8O1oI-18">
          <mxGeometry relative="1" as="geometry">
            <Array as="points">
              <mxPoint x="383" y="415" />
            </Array>
          </mxGeometry>
        </mxCell>
        <mxCell id="nB0PoolwAAnDLM-8O1oI-52" value="" style="curved=1;startArrow=none;endArrow=block;exitX=0.0017093919281266693;exitY=0.756721931463709;entryX=0.5034825623925052;entryY=0;rounded=0;" edge="1" parent="1" source="nB0PoolwAAnDLM-8O1oI-13" target="nB0PoolwAAnDLM-8O1oI-19">
          <mxGeometry relative="1" as="geometry">
            <Array as="points">
              <mxPoint x="499" y="415" />
            </Array>
          </mxGeometry>
        </mxCell>
        <mxCell id="nB0PoolwAAnDLM-8O1oI-53" value="" style="curved=1;startArrow=none;endArrow=block;exitX=0.0017093919281266693;exitY=0.9677482143723253;entryX=0.49999997832558374;entryY=0;rounded=0;" edge="1" parent="1" source="nB0PoolwAAnDLM-8O1oI-13" target="nB0PoolwAAnDLM-8O1oI-20">
          <mxGeometry relative="1" as="geometry">
            <Array as="points">
              <mxPoint x="626" y="415" />
            </Array>
          </mxGeometry>
        </mxCell>
        <mxCell id="nB0PoolwAAnDLM-8O1oI-54" value="" style="curved=1;startArrow=none;endArrow=block;exitX=0.5058624910347627;exitY=1;entryX=0.4977150424834221;entryY=0;rounded=0;" edge="1" parent="1" source="nB0PoolwAAnDLM-8O1oI-13" target="nB0PoolwAAnDLM-8O1oI-21">
          <mxGeometry relative="1" as="geometry">
            <Array as="points">
              <mxPoint x="782" y="415" />
            </Array>
          </mxGeometry>
        </mxCell>
        <mxCell id="nB0PoolwAAnDLM-8O1oI-55" value="" style="curved=1;startArrow=none;endArrow=block;exitX=1.0038461440648787;exitY=0.9677482143723253;entryX=0.507738090696789;entryY=0;rounded=0;" edge="1" parent="1" source="nB0PoolwAAnDLM-8O1oI-13" target="nB0PoolwAAnDLM-8O1oI-22">
          <mxGeometry relative="1" as="geometry">
            <Array as="points">
              <mxPoint x="936" y="415" />
            </Array>
          </mxGeometry>
        </mxCell>
        <mxCell id="nB0PoolwAAnDLM-8O1oI-56" value="" style="curved=1;startArrow=none;endArrow=block;exitX=0.001866668701171875;exitY=0.8008079858983175;entryX=0.49520200671571674;entryY=0;rounded=0;" edge="1" parent="1" source="nB0PoolwAAnDLM-8O1oI-14" target="nB0PoolwAAnDLM-8O1oI-23">
          <mxGeometry relative="1" as="geometry">
            <Array as="points">
              <mxPoint x="1061" y="415" />
            </Array>
          </mxGeometry>
        </mxCell>
        <mxCell id="nB0PoolwAAnDLM-8O1oI-57" value="" style="curved=1;startArrow=none;endArrow=block;exitX=0.05482222384498164;exitY=1;entryX=0.4929398165808784;entryY=0;rounded=0;" edge="1" parent="1" source="nB0PoolwAAnDLM-8O1oI-14" target="nB0PoolwAAnDLM-8O1oI-24">
          <mxGeometry relative="1" as="geometry">
            <Array as="points">
              <mxPoint x="1179" y="415" />
            </Array>
          </mxGeometry>
        </mxCell>
        <mxCell id="nB0PoolwAAnDLM-8O1oI-58" value="" style="curved=1;startArrow=none;endArrow=block;exitX=0.47839206840878434;exitY=1;entryX=0.5033333460489909;entryY=0;rounded=0;" edge="1" parent="1" source="nB0PoolwAAnDLM-8O1oI-14" target="nB0PoolwAAnDLM-8O1oI-25">
          <mxGeometry relative="1" as="geometry">
            <Array as="points">
              <mxPoint x="1310" y="415" />
            </Array>
          </mxGeometry>
        </mxCell>
        <mxCell id="nB0PoolwAAnDLM-8O1oI-59" value="" style="curved=1;startArrow=none;endArrow=block;exitX=0.9509111135573621;exitY=1;entryX=0.5022058860928404;entryY=0;rounded=0;" edge="1" parent="1" source="nB0PoolwAAnDLM-8O1oI-14" target="nB0PoolwAAnDLM-8O1oI-26">
          <mxGeometry relative="1" as="geometry">
            <Array as="points">
              <mxPoint x="1456" y="415" />
            </Array>
          </mxGeometry>
        </mxCell>
        <mxCell id="nB0PoolwAAnDLM-8O1oI-60" value="" style="curved=1;startArrow=none;endArrow=block;exitX=0.3299008173196496;exitY=1;entryX=0.5022472210144728;entryY=0;rounded=0;" edge="1" parent="1" source="nB0PoolwAAnDLM-8O1oI-15" target="nB0PoolwAAnDLM-8O1oI-27">
          <mxGeometry relative="1" as="geometry">
            <Array as="points">
              <mxPoint x="1602" y="415" />
            </Array>
          </mxGeometry>
        </mxCell>
        <mxCell id="nB0PoolwAAnDLM-8O1oI-61" value="" style="curved=1;startArrow=none;endArrow=block;exitX=0.674623045791574;exitY=1;entryX=0.49866676330566406;entryY=0;rounded=0;" edge="1" parent="1" source="nB0PoolwAAnDLM-8O1oI-15" target="nB0PoolwAAnDLM-8O1oI-28">
          <mxGeometry relative="1" as="geometry">
            <Array as="points">
              <mxPoint x="1721" y="415" />
            </Array>
          </mxGeometry>
        </mxCell>
        <mxCell id="nB0PoolwAAnDLM-8O1oI-62" value="" style="curved=1;startArrow=none;endArrow=block;exitX=0.0013468578608349115;exitY=0.8014107461380788;entryX=0.49523814693912044;entryY=0;rounded=0;" edge="1" parent="1" source="nB0PoolwAAnDLM-8O1oI-16" target="nB0PoolwAAnDLM-8O1oI-29">
          <mxGeometry relative="1" as="geometry">
            <Array as="points">
              <mxPoint x="1841" y="415" />
            </Array>
          </mxGeometry>
        </mxCell>
        <mxCell id="nB0PoolwAAnDLM-8O1oI-63" value="" style="curved=1;startArrow=none;endArrow=block;exitX=0.2089065640749058;exitY=1;entryX=0.5037671703181855;entryY=0;rounded=0;" edge="1" parent="1" source="nB0PoolwAAnDLM-8O1oI-16" target="nB0PoolwAAnDLM-8O1oI-30">
          <mxGeometry relative="1" as="geometry">
            <Array as="points">
              <mxPoint x="1973" y="415" />
            </Array>
          </mxGeometry>
        </mxCell>
        <mxCell id="nB0PoolwAAnDLM-8O1oI-64" value="" style="curved=1;startArrow=none;endArrow=block;exitX=0.7983325753663821;exitY=1;entryX=0.49949716699534447;entryY=0;rounded=0;" edge="1" parent="1" source="nB0PoolwAAnDLM-8O1oI-16" target="nB0PoolwAAnDLM-8O1oI-31">
          <mxGeometry relative="1" as="geometry">
            <Array as="points">
              <mxPoint x="2117" y="415" />
            </Array>
          </mxGeometry>
        </mxCell>
        <mxCell id="nB0PoolwAAnDLM-8O1oI-65" value="" style="curved=1;startArrow=none;endArrow=block;exitX=0.0033614214728860292;exitY=0.8704793182176966;entryX=0.491911860073314;entryY=0;rounded=0;" edge="1" parent="1" source="nB0PoolwAAnDLM-8O1oI-17" target="nB0PoolwAAnDLM-8O1oI-32">
          <mxGeometry relative="1" as="geometry">
            <Array as="points">
              <mxPoint x="2258" y="415" />
            </Array>
          </mxGeometry>
        </mxCell>
        <mxCell id="nB0PoolwAAnDLM-8O1oI-66" value="" style="curved=1;startArrow=none;endArrow=block;exitX=0.24628693220757522;exitY=1;entryX=0.5036325943775666;entryY=0;rounded=0;" edge="1" parent="1" source="nB0PoolwAAnDLM-8O1oI-17" target="nB0PoolwAAnDLM-8O1oI-33">
          <mxGeometry relative="1" as="geometry">
            <Array as="points">
              <mxPoint x="2381" y="415" />
            </Array>
          </mxGeometry>
        </mxCell>
        <mxCell id="nB0PoolwAAnDLM-8O1oI-67" value="" style="curved=1;startArrow=none;endArrow=block;exitX=0.7608561044504474;exitY=1;entryX=0.504569991942375;entryY=0;rounded=0;" edge="1" parent="1" source="nB0PoolwAAnDLM-8O1oI-17" target="nB0PoolwAAnDLM-8O1oI-34">
          <mxGeometry relative="1" as="geometry">
            <Array as="points">
              <mxPoint x="2533" y="415" />
            </Array>
          </mxGeometry>
        </mxCell>
      </root>
    </mxGraphModel>
  </diagram>
</mxfile>
